<?xml version="1.0" encoding="utf-8"?>
<!-- Generator: Adobe Illustrator 23.0.1, SVG Export Plug-In . SVG Version: 6.00 Build 0)  -->
<svg version="1.1" id="Capa_1" xmlns="http://www.w3.org/2000/svg" xmlns:xlink="http://www.w3.org/1999/xlink" x="0px" y="0px"
	 viewBox="0 0 512 512" style="enable-background:new 0 0 512 512;" xml:space="preserve">
<style type="text/css">
	.st0{fill:#141515;}
</style>
<g>
	<path class="st0" d="M411,216v-61C411,69.5,341.5,0,256,0S101,69.5,101,155v61H71v111c0,102,83,185,185,185s185-83,185-185V216H411
		z M131,155c0-68.9,56.1-125,125-125s125,56.1,125,125v61h-30v-61c0-52.4-42.6-95-95-95s-95,42.6-95,95v61h-30V155z M321,155v61H191
		v-61c0-35.8,29.2-65,65-65S321,119.2,321,155z M411,327c0,85.5-69.5,155-155,155s-155-69.5-155-155v-81h310V327z"/>
	<path class="st0" d="M241,373.4V416h30v-42.6c17.5-6.2,30-22.9,30-42.4c0-24.8-20.2-45-45-45s-45,20.2-45,45
		C211,350.6,223.5,367.2,241,373.4z M256,316c8.3,0,15,6.7,15,15s-6.7,15-15,15s-15-6.7-15-15S247.7,316,256,316z"/>
</g>
</svg>
