<?xml version="1.0" encoding="utf-8"?>
<!-- Generator: Adobe Illustrator 23.0.1, SVG Export Plug-In . SVG Version: 6.00 Build 0)  -->
<svg version="1.1" id="Capa_1" xmlns="http://www.w3.org/2000/svg" xmlns:xlink="http://www.w3.org/1999/xlink" x="0px" y="0px"
	 viewBox="0 0 512 512" style="enable-background:new 0 0 512 512;" xml:space="preserve">
<style type="text/css">
	.st0{fill:#901A22;}
</style>
<g>
	<g>
		<g>
			<path class="st0" d="M469.3,426.7c-12.8,0-24.2,5.8-32,14.7L383,414.3c0.6-2.9,1-5.9,1-8.9c0-3.1-0.4-6-1-8.9l54.3-27.2
				c7.8,9,19.2,14.7,32,14.7c23.5,0,42.7-19.1,42.7-42.7c0-23.5-19.1-42.7-42.7-42.7s-42.7,19.1-42.7,42.7c0,3.1,0.4,6,1,8.9
				l-54.3,27.2c-7.8-9-19.2-14.7-32-14.7c-23.5,0-42.7,19.1-42.7,42.7s19.1,42.7,42.7,42.7c12.8,0,24.2-5.8,32-14.7l54.3,27.1
				c-0.6,2.9-1,5.9-1,8.9c0,23.5,19.1,42.7,42.7,42.7c23.5,0,42.7-19.1,42.7-42.7S492.9,426.7,469.3,426.7z M469.3,320
				c11.8,0,21.3,9.6,21.3,21.3s-9.6,21.3-21.3,21.3c-11.8,0-21.3-9.6-21.3-21.3S457.6,320,469.3,320z M341.3,426.7
				c-11.8,0-21.3-9.6-21.3-21.3s9.6-21.3,21.3-21.3c11.8,0,21.3,9.6,21.3,21.3C362.7,417.1,353.1,426.7,341.3,426.7z M469.3,490.7
				c-11.8,0-21.3-9.6-21.3-21.3s9.6-21.3,21.3-21.3c11.8,0,21.3,9.6,21.3,21.3C490.7,481.1,481.1,490.7,469.3,490.7z"/>
			<path class="st0" d="M234.7,256c70.6,0,128-57.4,128-128S305.2,0,234.7,0s-128,57.4-128,128S164.1,256,234.7,256z M234.7,21.3
				c58.8,0,106.7,47.9,106.7,106.7s-47.9,106.7-106.7,106.7S128,186.8,128,128S175.9,21.3,234.7,21.3z"/>
			<path class="st0" d="M288,448H42.7c-11.8,0-21.3-9.6-21.3-21.3v-15.6c0-28.1,15.7-53.7,40.9-66.6
				c40.6-20.9,103.6-45.8,172.4-45.8c61.9,0,118.9,20.5,155.8,37.6c5.3,2.4,11.7,0.2,14.2-5.2s0.2-11.7-5.2-14.2
				c-38.9-18.1-99-39.6-164.8-39.6c-73.1,0-139.4,26.2-182.2,48.1C20.1,342.1,0,374.9,0,411.1v15.6c0,23.5,19.1,42.7,42.7,42.7H288
				c5.9,0,10.7-4.8,10.7-10.7S293.9,448,288,448z"/>
		</g>
	</g>
</g>
</svg>
