<svg height="512pt" viewBox="-66 0 512 512.001" width="512pt" xmlns="http://www.w3.org/2000/svg"><path d="m370 113.054688h-27.898438v-27.894532c0-5.523437-4.476562-10-10-10h-27.894531v-27.894531c0-5.523437-4.476562-10-10-10h-149.558593c-5.523438 0-10 4.476563-10 10s4.476562 10 10 10h139.5625v358.945313h-264.210938v-358.945313h17.894531v11.714844c0 13.175781 10.71875 23.894531 23.894531 23.894531 5.523438 0 10-4.480469 10-10 0-5.523438-4.476562-10-10-10-2.109374 0-3.894531-1.785156-3.894531-3.894531v-11.714844h17.789063c5.523437 0 10-4.476563 10-10v-23.371094c0-13.175781-10.71875-23.894531-23.894532-23.894531-13.171874 0-23.894531 10.71875-23.894531 23.894531v13.371094h-27.894531c-5.523438 0-10 4.476563-10 10v378.945313c0 5.523437 4.476562 10 10 10h27.894531v27.894531c0 5.523437 4.476563 10 10 10h27.894531v27.894531c0 5.523438 4.476563 10 10 10h284.210938c5.519531 0 10-4.476562 10-10v-378.945312c0-5.523438-4.480469-10-10-10zm-312.105469-89.160157c0-2.109375 1.785157-3.894531 3.894531-3.894531 2.113282 0 3.894532 1.785156 3.894532 3.894531v13.371094h-7.789063zm302.105469 468.105469h-264.210938v-17.894531h129.914063c5.523437 0 10-4.476563 10-10 0-5.523438-4.476563-10-10-10h-167.808594v-17.894531h236.316407c5.519531 0 10-4.480469 10-10v-331.050782h17.894531v358.945313h-27.4375c-5.519531 0-10 4.476562-10 10 0 5.523437 4.480469 10 10 10h37.4375c5.519531 0 10-4.476563 10-10v-331.050781h17.894531zm0 0"/><path d="m104.433594 57.265625c5.523437 0 10-4.476563 10-10s-4.476563-10-10-10h-.019532c-5.523437 0-9.988281 4.476563-9.988281 10s4.488281 10 10.007813 10zm0 0"/><path d="m265.917969 454.105469c-5.523438 0-10 4.476562-10 10 0 5.523437 4.476562 10 10 10h.023437c5.519532 0 9.988282-4.476563 9.988282-10 0-5.523438-4.488282-10-10.011719-10zm0 0"/><path d="m80.09375 147.058594c-1.726562 5.269531-.589844 10.914062 3.039062 15.109375l20.765626 23.953125-2.710938 31.65625c-.457031 5.492187 1.945312 10.714844 6.425781 13.964844 2.734375 1.980468 5.925781 2.996093 9.160157 2.996093 2.054687 0 4.128906-.410156 6.109374-1.246093l29.21875-12.351563 28.625 12.101563c5.210938 2.375 11.019532 1.90625 15.597657-1.269532 4.605469-3.191406 7.171875-8.636718 6.703125-14.226562l-2.726563-31.628906 20.546875-23.699219c3.753906-4.207031 5-9.871094 3.335938-15.183594-1.65625-5.285156-6.039063-9.34375-11.425782-10.585937l-30.863281-7.171876-16.296875-27.035156c-2.816406-4.78125-7.808594-7.65625-13.378906-7.703125-.042969 0-.085938 0-.132812 0-5.539063 0-10.542969 2.824219-13.40625 7.578125l-16.375 27.164063-30.820313 7.160156c-5.402344 1.234375-9.660156 5.128906-11.390625 10.417969zm50.859375.945312c2.632813-.613281 4.90625-2.265625 6.300781-4.578125l14.847656-24.636719 14.847657 24.636719c1.394531 2.316407 3.667969 3.964844 6.300781 4.578125l27.988281 6.5-18.816406 21.707032c-1.769531 2.042968-2.640625 4.714843-2.40625 7.410156l2.464844 28.648437-26.484375-11.199219c-1.246094-.523437-2.570313-.789062-3.894532-.789062-1.324218 0-2.652343.265625-3.894531.789062l-26.472656 11.195313 2.453125-28.652344c.230469-2.691406-.636719-5.359375-2.410156-7.402343l-18.8125-21.703126zm0 0"/><path d="m178.324219 278.738281c5.523437 0 10-4.480469 10-10 0-5.523437-4.476563-10-10-10h-52.4375c-5.523438 0-10 4.476563-10 10 0 5.519531 4.476562 10 10 10zm0 0"/><path d="m266.316406 328.738281c0-5.523437-4.480468-10-10-10h-208.421875c-5.523437 0-10 4.476563-10 10 0 5.519531 4.476563 10 10 10h208.421875c5.519532 0 10-4.476562 10-10zm0 0"/><path d="m85.789062 358.738281c-5.523437 0-10 4.476563-10 10 0 5.519531 4.476563 10 10 10h132.628907c5.523437 0 10-4.480469 10-10 0-5.523437-4.476563-10-10-10zm0 0"/></svg>