<?xml version="1.0" encoding="utf-8"?>
<!-- Generator: Adobe Illustrator 23.0.1, SVG Export Plug-In . SVG Version: 6.00 Build 0)  -->
<svg version="1.1" id="Layer_1" xmlns="http://www.w3.org/2000/svg" xmlns:xlink="http://www.w3.org/1999/xlink" x="0px" y="0px"
	 viewBox="0 0 512 512" style="enable-background:new 0 0 512 512;" xml:space="preserve">
<style type="text/css">
	.st0{fill:#141515;}
</style>
<path class="st0" d="M1.6,240.9l149.3,0c-1.7-26.5-7.9-52.2-18.5-76.5c-12.2-27.9-29.5-52.7-51.5-73.7c-0.1-0.1-0.2-0.2-0.2-0.2
	L70.1,79.9C29,124.1,5,180.6,1.6,240.9z"/>
<path class="st0" d="M85.5,416.7c38.9-39.3,61.8-90.6,65.4-145.7L1.6,271C5,331.3,29,387.8,70.1,432L85.5,416.7z"/>
<path class="st0" d="M180.9,240.9l60,0l0-241.9C185.8,2.3,133.9,23.2,91.8,59.1l10,10c24.9,23.8,44.4,51.8,58.2,83.3
	C172.2,180.6,179.2,210.3,180.9,240.9z"/>
<path class="st0" d="M240.9,270.9l-60,0c-3.6,63.1-29.6,121.8-74.2,166.9l-15,15c42.1,35.9,93.9,56.8,149.1,60.1L240.9,270.9z"/>
<path class="st0" d="M425.4,84.9c-41,42-63.9,97.3-64.8,156.1l149.8,0c-3.6-63.1-29.6-121.9-74.1-166.9L425.4,84.9z"/>
<path class="st0" d="M271,240.9l59.6,0c0.9-66.7,26.9-129.5,73.4-177.1l0.1-0.1l9.8-9.8C372.9,21.2,323.5,2.1,271-0.9L271,240.9z"/>
<path class="st0" d="M510.4,270.9l-148.3,0c6.4,55.3,32.8,106.8,74.6,144.1c0.2,0.2,0.4,0.4,0.6,0.6l10.2,10.2
	C485.2,382.5,507.1,328.5,510.4,270.9z"/>
<path class="st0" d="M416.4,437.1c-48-43-78-102.4-84.5-166.2H271l0,241.9c58-3.4,112.4-26.3,155.5-65.6L416.4,437.1z"/>
</svg>
