<?xml version="1.0" encoding="utf-8"?>
<!-- Generator: Adobe Illustrator 24.1.1, SVG Export Plug-In . SVG Version: 6.00 Build 0)  -->
<svg version="1.1" id="Layer_1" xmlns="http://www.w3.org/2000/svg" xmlns:xlink="http://www.w3.org/1999/xlink" x="0px" y="0px"
	 viewBox="0 0 496 496" style="enable-background:new 0 0 496 496;" xml:space="preserve">
<style type="text/css">
	.st0{fill:#9C1D24;}
</style>
<g>
	<g>
		<path class="st0" d="M272.9,242.2l-2.3-11.9c-0.4-2.3-2.7-4.5-4.9-4.9l-11.9-2.3c-0.4-0.1-0.7-0.1-1.2-0.1c-2.1,0-4.5,0.9-5.9,2.3
			l-22.5,22.5c-0.8,0.8-1.3,1.9-1.3,3.1c0,1.2,0.5,2.3,1.3,3.1l17.8,17.8c0.8,0.8,1.9,1.3,3.1,1.3c1.2,0,2.3-0.5,3.1-1.3l22.5-22.5
			C272.4,247.6,273.3,244.5,272.9,242.2z M266.7,233.5c-0.6,0.6-1.3,0.9-2.1,0.9c-0.8,0-1.5-0.3-2.1-0.9c-1.1-1.1-1.1-3,0-4.1
			c0.6-0.6,1.3-0.9,2.1-0.9c0.8,0,1.5,0.3,2.1,0.9C267.9,230.5,267.9,232.4,266.7,233.5z"/>
	</g>
</g>
</svg>
